<?xml version="1.0" encoding="UTF-8" standalone="no"?>
<!DOCTYPE svg PUBLIC "-//W3C//DTD SVG 1.1//EN" "http://www.w3.org/Graphics/SVG/1.1/DTD/svg11.dtd">
<svg xmlns="http://www.w3.org/2000/svg" version="1.1" viewBox="0.00 0.00 320.00 320.00">
<g stroke-width="2.00" fill="none" stroke-linecap="butt">
<path stroke="#f9dbb7" vector-effect="non-scaling-stroke" d="
  M 87.13 52.81
  Q 66.44 69.04 52.94 92.18
  Q 52.47 92.99 52.51 93.84"
/>
<path stroke="#a29491" vector-effect="non-scaling-stroke" d="
  M 52.51 93.84
  Q 51.78 94.18 51.30 95.00
  Q 42.28 110.50 38.47 127.98"
/>
<path stroke="#f9dbb7" vector-effect="non-scaling-stroke" d="
  M 38.47 127.98
  C 35.90 133.62 35.46 140.70 35.06 146.83
  A 4.35 4.34 66.8 0 1 34.06 149.34
  Q 30.63 153.43 27.23 158.67
  Q 7.05 189.72 14.23 226.06"
/>
<path stroke="#a29491" vector-effect="non-scaling-stroke" d="
  M 14.23 226.06
  L 17.51 237.95"
/>
<path stroke="#f9dbb7" vector-effect="non-scaling-stroke" d="
  M 17.51 237.95
  C 19.29 246.26 23.06 251.53 28.18 258.63
  C 41.64 277.29 59.45 289.84 82.00 295.03
  Q 91.41 297.19 102.44 297.14"
/>
<path stroke="#a29491" vector-effect="non-scaling-stroke" d="
  M 102.44 297.14
  Q 129.02 297.19 155.49 297.18
  Q 173.06 297.17 175.48 297.07
  Q 224.10 295.08 260.67 263.63
  C 324.92 208.40 322.83 106.76 256.56 54.10
  Q 226.40 30.14 190.50 25.28
  Q 133.43 17.55 87.13 52.81"
/>
<path stroke="#9c7048" vector-effect="non-scaling-stroke" d="
  M 102.44 297.14
  C 135.92 246.37 118.34 178.25 63.31 151.40
  Q 61.61 150.57 63.50 150.63
  C 104.39 151.88 129.87 107.32 108.87 72.40
  Q 101.30 59.82 87.13 52.81"
/>
<path stroke="#9c7048" vector-effect="non-scaling-stroke" d="
  M 17.51 237.95
  C 26.56 238.78 34.81 239.25 44.13 237.44
  C 57.91 234.75 67.47 226.34 67.84 211.44
  C 68.05 203.24 56.73 203.24 56.75 210.57
  Q 56.77 221.92 46.50 225.23
  Q 36.03 228.62 24.22 227.48
  Q 19.52 227.02 14.23 226.06"
/>
<path stroke="#9c7048" vector-effect="non-scaling-stroke" d="
  M 38.47 127.98
  Q 45.74 136.92 56.24 136.41
  C 66.42 135.93 75.27 128.16 76.47 117.78
  Q 77.20 111.48 75.02 106.72
  Q 68.72 92.91 52.51 93.84"
/>
<path stroke="#a29491" vector-effect="non-scaling-stroke" d="
  M 219.77 176.83
  Q 225.12 191.53 224.43 207.13
  A 0.42 0.41 80.7 0 0 224.99 207.54
  Q 239.89 202.16 251.40 191.49
  Q 252.01 190.92 251.17 190.92
  L 239.87 190.97
  Q 235.75 190.99 235.75 186.87
  L 235.76 158.50
  Q 235.76 157.98 235.42 157.58
  C 234.60 156.62 233.52 155.97 232.96 154.80
  C 228.08 144.52 244.18 139.19 246.61 149.66
  Q 247.67 154.19 243.71 157.37
  Q 243.19 157.78 243.19 158.45
  L 243.22 182.99
  Q 243.22 183.51 243.74 183.51
  L 258.22 183.53
  Q 258.82 183.53 259.20 183.06
  Q 272.33 166.61 275.28 145.60
  A 0.33 0.32 -86.1 0 0 274.96 145.23
  L 254.28 145.24
  Q 250.07 145.25 250.07 141.03
  L 250.09 114.73
  A 1.45 1.43 -72.0 0 0 249.51 113.57
  C 246.32 111.22 245.46 107.24 247.38 103.83
  C 250.70 97.94 259.98 99.45 261.02 106.27
  Q 261.69 110.69 257.92 113.65
  Q 257.48 114.00 257.48 114.56
  L 257.48 137.27
  Q 257.48 137.81 258.02 137.81
  L 275.44 137.76
  Q 276.04 137.76 276.05 137.16
  Q 276.48 114.51 264.37 94.99
  A 1.01 0.99 -15.3 0 0 263.51 94.51
  L 238.04 94.52
  Q 237.81 94.52 237.81 94.75
  Q 237.82 114.08 237.85 131.24
  Q 237.85 135.50 233.35 135.49
  Q 218.41 135.45 206.91 135.48
  Q 206.34 135.48 205.97 135.93
  Q 202.36 140.35 197.30 138.63
  C 193.92 137.48 191.90 133.82 192.63 130.35
  C 193.84 124.70 200.42 122.28 204.78 126.31
  Q 205.45 126.93 206.06 127.55
  A 1.55 1.52 -21.5 0 0 207.17 128.02
  L 229.85 128.05
  Q 230.49 128.05 230.49 127.40
  L 230.48 90.72
  A 3.55 3.55 0.0 0 1 234.03 87.16
  L 258.02 87.15
  Q 258.79 87.15 258.29 86.56
  Q 243.33 68.96 221.27 62.33
  A 0.22 0.22 0.0 0 0 220.99 62.54
  L 220.99 78.01
  A 3.50 3.50 0.0 0 1 217.49 81.51
  L 193.55 81.51
  Q 193.01 81.51 192.59 81.84
  C 191.51 82.69 190.89 83.73 189.61 84.38
  C 183.61 87.43 176.82 81.49 179.38 75.16
  C 181.63 69.59 188.43 68.75 192.21 73.48
  A 1.70 1.70 0.0 0 0 193.54 74.12
  L 213.04 74.20
  A 0.49 0.49 0.0 0 0 213.53 73.71
  L 213.54 61.05
  A 0.68 0.68 0.0 0 0 212.97 60.38
  Q 190.93 56.71 170.81 64.95
  Q 170.28 65.17 170.28 65.74
  L 170.31 93.07
  A 0.64 0.64 0.0 0 0 170.95 93.71
  L 192.31 93.71
  A 1.09 1.09 0.0 0 0 193.24 93.19
  C 195.90 88.90 201.56 87.57 205.24 91.46
  C 210.62 97.15 205.00 105.52 197.68 103.63
  C 196.20 103.24 195.24 102.19 194.03 101.34
  Q 193.59 101.03 193.04 101.04
  Q 179.50 101.12 167.07 101.09
  Q 162.88 101.08 162.88 96.85
  Q 162.88 82.44 162.89 69.40
  A 0.39 0.39 0.0 0 0 162.30 69.07
  Q 132.42 86.84 124.97 120.68
  A 0.50 0.49 -83.8 0 0 125.45 121.28
  L 146.54 121.33
  Q 150.74 121.34 150.74 125.54
  L 150.73 150.01
  Q 150.73 150.63 151.25 150.97
  Q 154.54 153.12 154.72 156.79
  C 155.11 164.99 144.18 167.60 140.68 160.31
  C 139.07 156.94 140.23 153.77 142.79 151.25
  Q 143.29 150.76 143.29 150.05
  L 143.31 129.27
  Q 143.31 128.74 142.77 128.74
  L 124.45 128.75
  Q 123.76 128.75 123.73 129.44
  C 122.91 144.98 131.36 160.83 142.49 171.54
  Q 143.00 172.02 143.70 172.02
  L 162.31 172.04
  Q 162.90 172.04 162.90 171.44
  L 162.89 149.13
  A 1.58 1.56 -66.7 0 0 162.47 148.06
  C 161.31 146.84 160.08 145.74 159.60 144.10
  C 156.87 134.77 169.90 130.37 173.39 138.88
  C 174.53 141.64 173.98 144.82 171.78 146.92
  Q 171.10 147.58 170.57 148.34
  Q 170.29 148.75 170.29 149.25
  L 170.30 175.99
  A 3.52 3.51 -89.8 0 1 166.76 179.51
  L 153.95 179.43
  Q 152.42 179.42 153.75 180.17
  C 162.70 185.25 172.36 187.68 182.62 187.16
  C 195.21 186.53 208.50 183.46 218.69 176.49
  Q 219.45 175.96 219.77 176.83"
/>
<path stroke="#a29491" vector-effect="non-scaling-stroke" d="
  M 187.22 146.76
  L 187.20 125.71
  Q 187.20 125.03 187.65 124.51
  Q 188.18 123.90 188.77 123.33
  C 191.34 120.86 191.46 116.86 189.57 114.09
  C 185.44 108.03 175.81 111.06 176.12 118.56
  Q 176.27 122.02 179.15 124.24
  A 1.54 1.53 -71.4 0 1 179.75 125.46
  L 179.75 151.50
  A 3.51 3.50 90.0 0 0 183.25 155.01
  L 208.04 155.00
  Q 208.59 154.99 208.99 155.36
  Q 209.62 155.93 210.19 156.58
  C 212.37 159.02 216.11 159.29 218.82 157.80
  C 225.99 153.85 222.50 142.80 214.26 144.03
  Q 211.16 144.50 209.24 147.13
  Q 208.90 147.59 208.34 147.59
  L 188.01 147.55
  Q 187.22 147.55 187.22 146.76"
/>
<path stroke="#a29491" vector-effect="non-scaling-stroke" d="
  M 65.86 106.60
  A 4.22 4.22 0.0 0 0 61.64 102.38
  A 4.22 4.22 0.0 0 0 57.42 106.60
  A 4.22 4.22 0.0 0 0 61.64 110.82
  A 4.22 4.22 0.0 0 0 65.86 106.60"
/>
</g>
<path fill="#ffffff" d="
  M 0.00 0.00
  L 320.00 0.00
  L 320.00 320.00
  L 0.00 320.00
  L 0.00 0.00
  Z
  M 87.13 52.81
  Q 66.44 69.04 52.94 92.18
  Q 52.47 92.99 52.51 93.84
  Q 51.78 94.18 51.30 95.00
  Q 42.28 110.50 38.47 127.98
  C 35.90 133.62 35.46 140.70 35.06 146.83
  A 4.35 4.34 66.8 0 1 34.06 149.34
  Q 30.63 153.43 27.23 158.67
  Q 7.05 189.72 14.23 226.06
  L 17.51 237.95
  C 19.29 246.26 23.06 251.53 28.18 258.63
  C 41.64 277.29 59.45 289.84 82.00 295.03
  Q 91.41 297.19 102.44 297.14
  Q 129.02 297.19 155.49 297.18
  Q 173.06 297.17 175.48 297.07
  Q 224.10 295.08 260.67 263.63
  C 324.92 208.40 322.83 106.76 256.56 54.10
  Q 226.40 30.14 190.50 25.28
  Q 133.43 17.55 87.13 52.81
  Z"
/>
<path fill="#452822" d="
  M 102.44 297.14
  C 135.92 246.37 118.34 178.25 63.31 151.40
  Q 61.61 150.57 63.50 150.63
  C 104.39 151.88 129.87 107.32 108.87 72.40
  Q 101.30 59.82 87.13 52.81
  Q 133.43 17.55 190.50 25.28
  Q 226.40 30.14 256.56 54.10
  C 322.83 106.76 324.92 208.40 260.67 263.63
  Q 224.10 295.08 175.48 297.07
  Q 173.06 297.17 155.49 297.18
  Q 129.02 297.19 102.44 297.14
  Z
  M 219.77 176.83
  Q 225.12 191.53 224.43 207.13
  A 0.42 0.41 80.7 0 0 224.99 207.54
  Q 239.89 202.16 251.40 191.49
  Q 252.01 190.92 251.17 190.92
  L 239.87 190.97
  Q 235.75 190.99 235.75 186.87
  L 235.76 158.50
  Q 235.76 157.98 235.42 157.58
  C 234.60 156.62 233.52 155.97 232.96 154.80
  C 228.08 144.52 244.18 139.19 246.61 149.66
  Q 247.67 154.19 243.71 157.37
  Q 243.19 157.78 243.19 158.45
  L 243.22 182.99
  Q 243.22 183.51 243.74 183.51
  L 258.22 183.53
  Q 258.82 183.53 259.20 183.06
  Q 272.33 166.61 275.28 145.60
  A 0.33 0.32 -86.1 0 0 274.96 145.23
  L 254.28 145.24
  Q 250.07 145.25 250.07 141.03
  L 250.09 114.73
  A 1.45 1.43 -72.0 0 0 249.51 113.57
  C 246.32 111.22 245.46 107.24 247.38 103.83
  C 250.70 97.94 259.98 99.45 261.02 106.27
  Q 261.69 110.69 257.92 113.65
  Q 257.48 114.00 257.48 114.56
  L 257.48 137.27
  Q 257.48 137.81 258.02 137.81
  L 275.44 137.76
  Q 276.04 137.76 276.05 137.16
  Q 276.48 114.51 264.37 94.99
  A 1.01 0.99 -15.3 0 0 263.51 94.51
  L 238.04 94.52
  Q 237.81 94.52 237.81 94.75
  Q 237.82 114.08 237.85 131.24
  Q 237.85 135.50 233.35 135.49
  Q 218.41 135.45 206.91 135.48
  Q 206.34 135.48 205.97 135.93
  Q 202.36 140.35 197.30 138.63
  C 193.92 137.48 191.90 133.82 192.63 130.35
  C 193.84 124.70 200.42 122.28 204.78 126.31
  Q 205.45 126.93 206.06 127.55
  A 1.55 1.52 -21.5 0 0 207.17 128.02
  L 229.85 128.05
  Q 230.49 128.05 230.49 127.40
  L 230.48 90.72
  A 3.55 3.55 0.0 0 1 234.03 87.16
  L 258.02 87.15
  Q 258.79 87.15 258.29 86.56
  Q 243.33 68.96 221.27 62.33
  A 0.22 0.22 0.0 0 0 220.99 62.54
  L 220.99 78.01
  A 3.50 3.50 0.0 0 1 217.49 81.51
  L 193.55 81.51
  Q 193.01 81.51 192.59 81.84
  C 191.51 82.69 190.89 83.73 189.61 84.38
  C 183.61 87.43 176.82 81.49 179.38 75.16
  C 181.63 69.59 188.43 68.75 192.21 73.48
  A 1.70 1.70 0.0 0 0 193.54 74.12
  L 213.04 74.20
  A 0.49 0.49 0.0 0 0 213.53 73.71
  L 213.54 61.05
  A 0.68 0.68 0.0 0 0 212.97 60.38
  Q 190.93 56.71 170.81 64.95
  Q 170.28 65.17 170.28 65.74
  L 170.31 93.07
  A 0.64 0.64 0.0 0 0 170.95 93.71
  L 192.31 93.71
  A 1.09 1.09 0.0 0 0 193.24 93.19
  C 195.90 88.90 201.56 87.57 205.24 91.46
  C 210.62 97.15 205.00 105.52 197.68 103.63
  C 196.20 103.24 195.24 102.19 194.03 101.34
  Q 193.59 101.03 193.04 101.04
  Q 179.50 101.12 167.07 101.09
  Q 162.88 101.08 162.88 96.85
  Q 162.88 82.44 162.89 69.40
  A 0.39 0.39 0.0 0 0 162.30 69.07
  Q 132.42 86.84 124.97 120.68
  A 0.50 0.49 -83.8 0 0 125.45 121.28
  L 146.54 121.33
  Q 150.74 121.34 150.74 125.54
  L 150.73 150.01
  Q 150.73 150.63 151.25 150.97
  Q 154.54 153.12 154.72 156.79
  C 155.11 164.99 144.18 167.60 140.68 160.31
  C 139.07 156.94 140.23 153.77 142.79 151.25
  Q 143.29 150.76 143.29 150.05
  L 143.31 129.27
  Q 143.31 128.74 142.77 128.74
  L 124.45 128.75
  Q 123.76 128.75 123.73 129.44
  C 122.91 144.98 131.36 160.83 142.49 171.54
  Q 143.00 172.02 143.70 172.02
  L 162.31 172.04
  Q 162.90 172.04 162.90 171.44
  L 162.89 149.13
  A 1.58 1.56 -66.7 0 0 162.47 148.06
  C 161.31 146.84 160.08 145.74 159.60 144.10
  C 156.87 134.77 169.90 130.37 173.39 138.88
  C 174.53 141.64 173.98 144.82 171.78 146.92
  Q 171.10 147.58 170.57 148.34
  Q 170.29 148.75 170.29 149.25
  L 170.30 175.99
  A 3.52 3.51 -89.8 0 1 166.76 179.51
  L 153.95 179.43
  Q 152.42 179.42 153.75 180.17
  C 162.70 185.25 172.36 187.68 182.62 187.16
  C 195.21 186.53 208.50 183.46 218.69 176.49
  Q 219.45 175.96 219.77 176.83
  Z"
/>
<path fill="#f3b76e" d="
  M 87.13 52.81
  Q 101.30 59.82 108.87 72.40
  C 129.87 107.32 104.39 151.88 63.50 150.63
  Q 61.61 150.57 63.31 151.40
  C 118.34 178.25 135.92 246.37 102.44 297.14
  Q 91.41 297.19 82.00 295.03
  C 59.45 289.84 41.64 277.29 28.18 258.63
  C 23.06 251.53 19.29 246.26 17.51 237.95
  C 26.56 238.78 34.81 239.25 44.13 237.44
  C 57.91 234.75 67.47 226.34 67.84 211.44
  C 68.05 203.24 56.73 203.24 56.75 210.57
  Q 56.77 221.92 46.50 225.23
  Q 36.03 228.62 24.22 227.48
  Q 19.52 227.02 14.23 226.06
  Q 7.05 189.72 27.23 158.67
  Q 30.63 153.43 34.06 149.34
  A 4.35 4.34 66.8 0 0 35.06 146.83
  C 35.46 140.70 35.90 133.62 38.47 127.98
  Q 45.74 136.92 56.24 136.41
  C 66.42 135.93 75.27 128.16 76.47 117.78
  Q 77.20 111.48 75.02 106.72
  Q 68.72 92.91 52.51 93.84
  Q 52.47 92.99 52.94 92.18
  Q 66.44 69.04 87.13 52.81
  Z"
/>
<path fill="#ffffff" d="
  M 218.69 176.49
  C 208.50 183.46 195.21 186.53 182.62 187.16
  C 172.36 187.68 162.70 185.25 153.75 180.17
  Q 152.42 179.42 153.95 179.43
  L 166.76 179.51
  A 3.52 3.51 -89.8 0 0 170.30 175.99
  L 170.29 149.25
  Q 170.29 148.75 170.57 148.34
  Q 171.10 147.58 171.78 146.92
  C 173.98 144.82 174.53 141.64 173.39 138.88
  C 169.90 130.37 156.87 134.77 159.60 144.10
  C 160.08 145.74 161.31 146.84 162.47 148.06
  A 1.58 1.56 -66.7 0 1 162.89 149.13
  L 162.90 171.44
  Q 162.90 172.04 162.31 172.04
  L 143.70 172.02
  Q 143.00 172.02 142.49 171.54
  C 131.36 160.83 122.91 144.98 123.73 129.44
  Q 123.76 128.75 124.45 128.75
  L 142.77 128.74
  Q 143.31 128.74 143.31 129.27
  L 143.29 150.05
  Q 143.29 150.76 142.79 151.25
  C 140.23 153.77 139.07 156.94 140.68 160.31
  C 144.18 167.60 155.11 164.99 154.72 156.79
  Q 154.54 153.12 151.25 150.97
  Q 150.73 150.63 150.73 150.01
  L 150.74 125.54
  Q 150.74 121.34 146.54 121.33
  L 125.45 121.28
  A 0.50 0.49 -83.8 0 1 124.97 120.68
  Q 132.42 86.84 162.30 69.07
  A 0.39 0.39 0.0 0 1 162.89 69.40
  Q 162.88 82.44 162.88 96.85
  Q 162.88 101.08 167.07 101.09
  Q 179.50 101.12 193.04 101.04
  Q 193.59 101.03 194.03 101.34
  C 195.24 102.19 196.20 103.24 197.68 103.63
  C 205.00 105.52 210.62 97.15 205.24 91.46
  C 201.56 87.57 195.90 88.90 193.24 93.19
  A 1.09 1.09 0.0 0 1 192.31 93.71
  L 170.95 93.71
  A 0.64 0.64 0.0 0 1 170.31 93.07
  L 170.28 65.74
  Q 170.28 65.17 170.81 64.95
  Q 190.93 56.71 212.97 60.38
  A 0.68 0.68 0.0 0 1 213.54 61.05
  L 213.53 73.71
  A 0.49 0.49 0.0 0 1 213.04 74.20
  L 193.54 74.12
  A 1.70 1.70 0.0 0 1 192.21 73.48
  C 188.43 68.75 181.63 69.59 179.38 75.16
  C 176.82 81.49 183.61 87.43 189.61 84.38
  C 190.89 83.73 191.51 82.69 192.59 81.84
  Q 193.01 81.51 193.55 81.51
  L 217.49 81.51
  A 3.50 3.50 0.0 0 0 220.99 78.01
  L 220.99 62.54
  A 0.22 0.22 0.0 0 1 221.27 62.33
  Q 243.33 68.96 258.29 86.56
  Q 258.79 87.15 258.02 87.15
  L 234.03 87.16
  A 3.55 3.55 0.0 0 0 230.48 90.72
  L 230.49 127.40
  Q 230.49 128.05 229.85 128.05
  L 207.17 128.02
  A 1.55 1.52 -21.5 0 1 206.06 127.55
  Q 205.45 126.93 204.78 126.31
  C 200.42 122.28 193.84 124.70 192.63 130.35
  C 191.90 133.82 193.92 137.48 197.30 138.63
  Q 202.36 140.35 205.97 135.93
  Q 206.34 135.48 206.91 135.48
  Q 218.41 135.45 233.35 135.49
  Q 237.85 135.50 237.85 131.24
  Q 237.82 114.08 237.81 94.75
  Q 237.81 94.52 238.04 94.52
  L 263.51 94.51
  A 1.01 0.99 -15.3 0 1 264.37 94.99
  Q 276.48 114.51 276.05 137.16
  Q 276.04 137.76 275.44 137.76
  L 258.02 137.81
  Q 257.48 137.81 257.48 137.27
  L 257.48 114.56
  Q 257.48 114.00 257.92 113.65
  Q 261.69 110.69 261.02 106.27
  C 259.98 99.45 250.70 97.94 247.38 103.83
  C 245.46 107.24 246.32 111.22 249.51 113.57
  A 1.45 1.43 -72.0 0 1 250.09 114.73
  L 250.07 141.03
  Q 250.07 145.25 254.28 145.24
  L 274.96 145.23
  A 0.33 0.32 -86.1 0 1 275.28 145.60
  Q 272.33 166.61 259.20 183.06
  Q 258.82 183.53 258.22 183.53
  L 243.74 183.51
  Q 243.22 183.51 243.22 182.99
  L 243.19 158.45
  Q 243.19 157.78 243.71 157.37
  Q 247.67 154.19 246.61 149.66
  C 244.18 139.19 228.08 144.52 232.96 154.80
  C 233.52 155.97 234.60 156.62 235.42 157.58
  Q 235.76 157.98 235.76 158.50
  L 235.75 186.87
  Q 235.75 190.99 239.87 190.97
  L 251.17 190.92
  Q 252.01 190.92 251.40 191.49
  Q 239.89 202.16 224.99 207.54
  A 0.42 0.41 80.7 0 1 224.43 207.13
  Q 225.12 191.53 219.77 176.83
  Q 219.45 175.96 218.69 176.49
  Z
  M 187.22 146.76
  L 187.20 125.71
  Q 187.20 125.03 187.65 124.51
  Q 188.18 123.90 188.77 123.33
  C 191.34 120.86 191.46 116.86 189.57 114.09
  C 185.44 108.03 175.81 111.06 176.12 118.56
  Q 176.27 122.02 179.15 124.24
  A 1.54 1.53 -71.4 0 1 179.75 125.46
  L 179.75 151.50
  A 3.51 3.50 90.0 0 0 183.25 155.01
  L 208.04 155.00
  Q 208.59 154.99 208.99 155.36
  Q 209.62 155.93 210.19 156.58
  C 212.37 159.02 216.11 159.29 218.82 157.80
  C 225.99 153.85 222.50 142.80 214.26 144.03
  Q 211.16 144.50 209.24 147.13
  Q 208.90 147.59 208.34 147.59
  L 188.01 147.55
  Q 187.22 147.55 187.22 146.76
  Z"
/>
<path fill="#452822" d="
  M 52.51 93.84
  Q 68.72 92.91 75.02 106.72
  Q 77.20 111.48 76.47 117.78
  C 75.27 128.16 66.42 135.93 56.24 136.41
  Q 45.74 136.92 38.47 127.98
  Q 42.28 110.50 51.30 95.00
  Q 51.78 94.18 52.51 93.84
  Z
  M 65.86 106.60
  A 4.22 4.22 0.0 0 0 61.64 102.38
  A 4.22 4.22 0.0 0 0 57.42 106.60
  A 4.22 4.22 0.0 0 0 61.64 110.82
  A 4.22 4.22 0.0 0 0 65.86 106.60
  Z"
/>
<circle fill="#ffffff" cx="61.64" cy="106.60" r="4.22"/>
<path fill="#452822" d="
  M 188.01 147.55
  L 208.34 147.59
  Q 208.90 147.59 209.24 147.13
  Q 211.16 144.50 214.26 144.03
  C 222.50 142.80 225.99 153.85 218.82 157.80
  C 216.11 159.29 212.37 159.02 210.19 156.58
  Q 209.62 155.93 208.99 155.36
  Q 208.59 154.99 208.04 155.00
  L 183.25 155.01
  A 3.51 3.50 90.0 0 1 179.75 151.50
  L 179.75 125.46
  A 1.54 1.53 -71.4 0 0 179.15 124.24
  Q 176.27 122.02 176.12 118.56
  C 175.81 111.06 185.44 108.03 189.57 114.09
  C 191.46 116.86 191.34 120.86 188.77 123.33
  Q 188.18 123.90 187.65 124.51
  Q 187.20 125.03 187.20 125.71
  L 187.22 146.76
  Q 187.22 147.55 188.01 147.55
  Z"
/>
<path fill="#452822" d="
  M 17.51 237.95
  L 14.23 226.06
  Q 19.52 227.02 24.22 227.48
  Q 36.03 228.62 46.50 225.23
  Q 56.77 221.92 56.75 210.57
  C 56.73 203.24 68.05 203.24 67.84 211.44
  C 67.47 226.34 57.91 234.75 44.13 237.44
  C 34.81 239.25 26.56 238.78 17.51 237.95
  Z"
/>
</svg>
