<svg xmlns="http://www.w3.org/2000/svg" width="512" height="512" style="shape-rendering:geometricPrecision;text-rendering:geometricPrecision;image-rendering:optimizeQuality;fill-rule:evenodd;clip-rule:evenodd"><path style="opacity:.818" fill="#fb5453" d="M398.5 40.5c12.775-1.367 21.941 3.633 27.5 15l83 271c1.456 7.545.123 14.545-4 21-63.641 67.663-141.808 94.83-234.5 81.5a1986.13 1986.13 0 0 0-73.5-7.5c-50.513.947-95.679 16.78-135.5 47.5-14.306 4.091-24.806-.409-31.5-13.5a14877.527 14877.527 0 0 1-28.5-276 32.595 32.595 0 0 1 1.5-10c12.833-22.167 30.333-39.667 52.5-52.5 31.11-17.112 64.444-26.112 100-27 35.334.5 70.667 1.333 106 2.5 50.301 4.742 92.635-11.092 127-47.5 3.315-1.83 6.649-3.33 10-4.5z"/><path style="opacity:1" fill="#ff0100" d="M397.5 42.5c12.23-1.471 21.063 3.195 26.5 14a63110.396 63110.396 0 0 1 83 270c1.405 7.266.072 13.933-4 20-60.662 65.119-135.495 92.285-224.5 81.5a2442.287 2442.287 0 0 1-64-7c-57.24-4.027-108.573 11.306-154 46-16.702 3.732-26.868-2.768-30.5-19.5-8.573-86.342-17.24-172.675-26-259-.87-6.417-.536-12.751 1-19 12.5-20.5 29-37 49.5-49.5 29.115-16.592 60.449-25.925 94-28 36.683-.021 73.349.812 110 2.5 51.593 5.198 95.26-10.635 131-47.5a48.484 48.484 0 0 1 8-4.5z"/><path style="opacity:1" fill="#ffd0cf" d="M311.5 336.5a307.732 307.732 0 0 1 8 34 680.798 680.798 0 0 1-44-3c13.997.449 27.997.782 42 1a193.352 193.352 0 0 1-6-32z"/><path style="opacity:1" fill="#ff2d25" d="M213.5 318.5a1620.803 1620.803 0 0 1 7 35c-1.086-.12-1.753-.787-2-2a129.424 129.424 0 0 1-5-33z"/><path style="opacity:1" fill="#ffdddc" d="M207.5 288.5c.996-.086 1.829.248 2.5 1a3241.144 3241.144 0 0 1 14 73c12.44.846 24.94 1.68 37.5 2.5 3.892.419 7.558 1.252 11 2.5a1178.924 1178.924 0 0 0-50-3 40.1 40.1 0 0 0-2-11 1620.803 1620.803 0 0 0-7-35 327.792 327.792 0 0 0-6-30z"/><path style="opacity:1" fill="#ffd4d2" d="M335.5 293.5c-.342.838-1.008 1.172-2 1h-31a2688.299 2688.299 0 0 1 9 41c-1.086-.12-1.753-.787-2-2a485.214 485.214 0 0 1-8.5-39 302.635 302.635 0 0 1 34.5-1z"/><path style="opacity:1" fill="#ff221d" d="M333.5 294.5c-9.45 1.64-19.116 2.307-29 2a7070.74 7070.74 0 0 0 15.5 66c.801 2.867.634 5.534-.5 8a307.732 307.732 0 0 0-8-34v-1a2688.299 2688.299 0 0 0-9-41h31z"/><path style="opacity:1" fill="#ffd4d3" d="M396.5 250.5a252.557 252.557 0 0 1 7 24c-.247 1.213-.914 1.88-2 2a189.022 189.022 0 0 1-5-26z"/><path style="opacity:1" fill="#ffdada" d="M92.5 239.5a867.536 867.536 0 0 0 9 62 104.24 104.24 0 0 1 29-8 221.77 221.77 0 0 0-31 10 7154.84 7154.84 0 0 0-9-63c.342-.838 1.008-1.172 2-1z"/><path style="opacity:1" fill="#ff2b25" d="M90.5 240.5a7154.84 7154.84 0 0 1 9 63c-1.194-.47-1.86-1.47-2-3a5654.486 5654.486 0 0 1-8-56c.01-1.545.344-2.878 1-4z"/><path style="opacity:1" fill="#ffc7c5" d="M153.5 225.5c-.763.768-1.763 1.268-3 1.5a270.867 270.867 0 0 1-23 2.5c8.395-2.246 17.061-3.58 26-4z"/><path style="opacity:1" fill="#ffd6d5" d="M391.5 231.5c-.997.03-1.664-.47-2-1.5l-3.5-12.5c-.498-2.044-1.665-3.378-3.5-4 1.329-1.877 2.662-2.044 4-.5a253.134 253.134 0 0 1 5 18.5zM281.5 208.5a155.386 155.386 0 0 1 5 20c-1.545-.73-2.378-2.063-2.5-4a45.183 45.183 0 0 1-2.5-16z"/><path style="opacity:1" fill="#ffdad9" d="M271.5 165.5a397.77 397.77 0 0 1 8 33c-1.086-.12-1.753-.787-2-2a204.53 204.53 0 0 1-6-31z"/><path style="opacity:1" fill="#ffe3e3" d="M203.5 151.5h-20a3233.335 3233.335 0 0 0 13 70c-.02 1.226-.353 2.226-1 3a7221.43 7221.43 0 0 0-14-74c7.519-.325 14.852.008 22 1zM206.5 151.5a1057.363 1057.363 0 0 0 63 2 49.299 49.299 0 0 0 2 11c-1.086-.12-1.753-.787-2-2a28.741 28.741 0 0 1-2-7 590.551 590.551 0 0 1-61-4z"/><path style="opacity:1" fill="#fffefe" d="M203.5 151.5h3a590.551 590.551 0 0 0 61 4 28.741 28.741 0 0 0 2 7c.247 1.213.914 1.88 2 2v1a204.53 204.53 0 0 0 6 31c.247 1.213.914 1.88 2 2a27.13 27.13 0 0 1 2 10 45.183 45.183 0 0 0 2.5 16c.122 1.937.955 3.27 2.5 4v1c.111.617.444 1.117 1 1.5a215.08 215.08 0 0 0 48-3c1.237-.232 2.237-.732 3-1.5a217.63 217.63 0 0 0 44-13c1.835.622 3.002 1.956 3.5 4l3.5 12.5c.336 1.03 1.003 1.53 2 1.5a132.713 132.713 0 0 1 5 19 189.022 189.022 0 0 0 5 26c-20.764 10.025-42.764 15.692-66 17a302.635 302.635 0 0 0-34.5 1 485.214 485.214 0 0 0 8.5 39c.247 1.213.914 1.88 2 2v1a193.352 193.352 0 0 0 6 32 2546.088 2546.088 0 0 1-42-1h-3c-3.442-1.248-7.108-2.081-11-2.5-12.56-.82-25.06-1.654-37.5-2.5a3241.144 3241.144 0 0 0-14-73c-.671-.752-1.504-1.086-2.5-1a365.954 365.954 0 0 0-77 5 104.24 104.24 0 0 0-29 8 867.536 867.536 0 0 1-9-62 131.547 131.547 0 0 1 35-10 270.867 270.867 0 0 0 23-2.5c1.237-.232 2.237-.732 3-1.5a577.233 577.233 0 0 1 42-1c.647-.774.98-1.774 1-3a3233.335 3233.335 0 0 1-13-70h20z"/><path style="opacity:1" fill="#ffe3e2" d="M338.5 226.5c-.763.768-1.763 1.268-3 1.5a215.08 215.08 0 0 1-48 3c-.556-.383-.889-.883-1-1.5 17.43.468 34.763-.532 52-3z"/></svg>